<mxfile host="app.diagrams.net" modified="2023-06-18T17:19:43.367Z" agent="Mozilla/5.0 (Windows NT 10.0; Win64; x64; rv:102.0) Gecko/20100101 Firefox/102.0" etag="nq1JgqWWwBAXDA4OAoVK" version="21.4.0" type="device">
  <diagram id="R2lEEEUBdFMjLlhIrx00" name="Page-1">
    <mxGraphModel dx="1314" dy="727" grid="1" gridSize="10" guides="1" tooltips="1" connect="1" arrows="1" fold="1" page="1" pageScale="1" pageWidth="1200" pageHeight="1920" math="0" shadow="0" extFonts="Permanent Marker^https://fonts.googleapis.com/css?family=Permanent+Marker">
      <root>
        <mxCell id="0" />
        <mxCell id="1" parent="0" />
        <mxCell id="xRkAMs9unRZzOuT88SSD-59" value="" style="shape=image;verticalLabelPosition=bottom;labelBackgroundColor=default;verticalAlign=top;aspect=fixed;imageAspect=0;image=data:image/png,iVBORw0KGgoAAAANSUhEUgAAAWQAAAJ5CAYAAACZu0r4AAAgAElEQVR4Xu2dB5gUxdaGDyw5gwQJoiggohhRMWFEBcWsqBgwghlzzgHT/UVBxYSiIGbFLOacAyZUck5KDgssy1+nl57t6Z3QPbu90z3z1n18LjtTXXXqPTVfV5+uUGX9uI/XCwkCEIAABLJOoAqCnHUfYAAEIAABiwCCTEeAAAQgEBICCHJIHIEZEIAABBBk+gAEIACBkBBAkEPiCMyAAAQggCDTByAAAQiEhACCHBJHYAYEIAABBJk+AAEIQCAkBBDkkDgCMyAAAQggyPQBCEAAAiEhgCCHxBGYAQEIQABBpg9AAAIQCAkBBDkkjsAMCEAAAggyfQACEIBASAggyCFxBGZAAAIQQJDpAxCAAARCQgBBDokjMAMCEIAAgkwfgAAEIBASAghySByBGRCAAAQQZPoABCAAgZAQQJBD4gjMgAAEIIAg0wcgAAEIhIQAghwSR2AGBCAAAQSZPgABCEAgJAQQ5JA4IspmzF+4OM785k0aRbk52A6BrBEInSAvWb4iKYwa1atJ7Zo108K65ZGnZfnKVVKrZg25+Zx+UqVKlbTX5HuGb379U1796AsLwxH77iG7bbe1ZyRX3PdIXN67L+7v+VoyQgACpQRCJ8juH3cyZ6nYXtHveKlXp3Zcli9++k1e//Sr2Gf77byDHLznLvg8DYHyiGp5rsUxEIBADgiy3YRjenSXXbbZKtaiKbPmyMMvvB77u9/hB0vnzTfF5wgyfQACoScQ+hFy6+ZNYxA1Vrm2qKgM1NsvOEOqV6sW+/yfaTPl+Xc/Mo/ee0qXjpuH3glhMLC4uFiGv/aOmPiOnH5ET6nqI8zDCDkMHsSGXCAQekFOFI8c8cZ78sfEqTH+R+2/l3TbtnMu+COSbUCQI+k2jA4hgUgK8rKVK+XWR56J4dQXUEfut6f195q1a+XVDz+PfXdo992lbp1aZdAXrVsno956X/6YNC323SHdu0n3Hbct8xJQR9w/j/8nlq/PwfuJNaIc8678M3WG9XnzjRrJBSccJTWrV4/l01G6nQoKCuSYHnvH2bFmbZGx9bPYZxs3bSJ7d90+Ls+qwtXy6MtvyKz5/8U+P+mQHtbI3/2qcuzX38uiJcvi7NQnivtHvSz2TIgObVvLGUf2kqpVq8bV47RVv9A2utN/i5fIfSNfMoxLnlJO6LW/7LBle/EiyKvXrLVG4BpSslNPE9vX9voZjYfwN4RJEKgwApEU5JWFhXLTwyNKf9h77CL77rKD9Xfh6jVyw0NPxr676vQTpEnDBnHAVBj+mjI9KcSBJx0trZqVhkp0BsIrDpHXR3rr8T5BuuTkY0WFVdO1Q56IC7G4R/vjJ0+TJ42o2+nK006QjRqV2nrviBeMkC5KaueNA06VurVLbzbDXnxdJs90CJ7h8s6X3yW8/tbzTpOaNWrEvksnqoONEM9eUHpTSNUD3e2868nnRMU8WTq+536yY6cOFdapKQgCUSUQSUEe8boJWUyaGmN+3dknS4O6dTwJcjoxtgu95dzTrGlzmtyCnM7ZtiD9M22GPP7K27Hsdw48O240qKN8He1r0pDtXQNLp4v97+kXZN5/ycXYLnTQRWdJwYbRrluQU9nZsF5dufaskzwJ8jtffCsff/9LumbHvncK8u2PjZRUUxnti07pfaBs076d5zrICIFcJBB6QU4Hvdu2W8lR+3ePZUs1Ql5nwgxX3/9YLG99I+LXGzHXVLhmjdz40FOyfv16629d3HDZqX0SCrLOh77JzG+uZsIQmm4eNkJWrCqMlesUc+fIc4/tt5HDzRxfOzm/67hpGznzqEOsryaYEMljr7wVy7d565Yy4LjDrL8XLFos9zz1fOy7bTtsLicd2sP62y3IOnrWUbQmbfs1Dzwea59+5hTOVCNk93dXn3GiNG5Q3yr3ruGj5b8lS2P2OMvVMMm9I0ptbda4oVxupipqWm543Wrmi9u83fbEFcgfEMgTApEW5LOPOVTab9I6zlWpBPmOx0fK4mWlC0/cj9aTZ842ovZGrDz7e/cIWUeWOsK0k45kdURrpytNmGSjDWGSq40IrjPxak01THz5tvNPt/69dMVKue3R0jj41Wf0NSJXz/ruxoefEo0da9JFLXeZkbUz6QKOr8f9UcZOtyC72/fL3xPl2bc/jF3nHLEnE+Sps+fKQ8+PiV1zggkv7OAKLyS71vl5onZMnzNPhj73WqzsPgftKzt17pgnPz2aCYGyBCItyNqcHbfqKMcfvG+sZakE2SkQdWrVtEa5zqQiqGJoJx0h60jZLcju+Gtx8Xq56v5HY9ddcMKRssnGza2/p82eJw8+Xyo6tkh+8M2PMvbrHxKKrtPO7TpuIX0POSDOTvcNQEVexT6dIM9ZsNC8lHsxVtZN55wqdWqVxKCTieoLYz+RH/74O3aNe4phqmudZbZsupFcfPIxZXqgM4/eXPUmS4JAvhIIvSAnmvb2iBnFTjKjWTs5R21eBdmLw884sqdsuVnbcgmyW7AuPaWPtDAzMuLDFZuYcEUvyySdJXLd0OFezIvluWHAKVKvdu1ABHn4a2+bF6AlM0k0JfJHIjF3h4cO3K2rHNBtp5SCrCGgOy4801fbyQyBXCIQSUFONSqrSEE+9bCDZOstNiu3IGvsVqfZadIRt87EuMoRy76+/ylSf8MS8JVmlH6TY5TupbPZ1wcxQn7s5bdkwvSZ/gXZtFfDNXbS2LnG0N0p3ewOL+0nDwRyhUBkBfmuJ83LpMWlL5PskZtXQdZNipyhjkQObWVWCWqsuDwhCy139vx/ZbCZC6ypoKCqDOx7TCzmrPOB7zQzJeyk84Z1upydupiXdl3TxFU7tG0j1aoVBDJCfvqNsfL7xCm+Bdkdxtllm05l5mG7b6yN6teTa87smyu/LdoBAd8EIivIzpdl2mq/guzn8bi8guwWnnZm1oS9QGLLzTaxFmo4k3PUqC8H9SWhlxTECPnTH36Rtz7/Nla9zkrR2SnJ7HX6wtkOnZWhszOcyS3aeuM5zrzYI0EgXwlEUpDdIqGj3ZvP7Wf5MNUI+W0jLJ8YgbHTwWbhxH4bFpTYny0zsx90psXl/UqmvGmqCEG+3sSFV5v4sDup3e4tRd1hAl2I0qld27hLZy/415ob3LdX6Qu/IAR5tZkOeP2DpQttdKXfWUeXvnhzr5p0CvJjL79pwh2zkor5G2ZXvs/N7nx2UubNGrOXcr6KEe02s6rWj/u4ZOJtSJLX7Ted5g449jDZvE3LtIKsGdzlNzUr4/bcYVszp7iq/GymhU2aUfKycAvzxr//hjf+FSHI7pkRWoeGLwZdWBqusNvkvqno5+1ab2zNKNFYtE55s5dC77Pz9tJrz12tS4MQZC33tseekaXLSxawaGrTvJl03XpLa070l7/8Xqbn2E8rRUXr5JohpXFkzbiXWZquKxl/NDM3JjuWUbvDFc7pdrrB1EV9jw5JD8UMCARHIPKCrJsK6eZCycTMvXRaF3DoQo50yRnzrAhB1gUQVw4unRqn9W9ltgU9zWwPmii5F4cks/do0/ZdN2ysFJQg62b/uum/1+SciaFL1JMtM7fL0/CRLqbROLidnIKsUwh1KiEJArlOILKC3Nb8SI89cB8zhaxxnI+87GWhU7IefmGMTJ8zv4x/VRx03q/OrrBTRQiyluVe0XermT/s3IzIbczSFSvMoozXZaFrJZzm02Xd55gng5bNNopdFpQgawXzzJ4a9498OTZbxK70JMPqtY+/tE5osZN7apzuxzFk9KuiGwy5k8bT9UnEvdmRU5A3a7WxnNvn8Fz/LdI+CIQvZFHZPpljNsxZvGy5NTrTDYWcm/VUti3J6is2o+tZZqbGMnO8lQpxmxbNrIUg2Ui6TFrDL/XMsuy2LVv4MkFnkMyYO9+K8zc0Myqce127C/ptwmR55s33rY93N7v5HbFhNz9fFZIZAhEjELoRcsT4YW5ABJ40u+mN37Aj38CTjjE3y9IngYCqpFgIZJ0Agpx1F2BAIgLOl68cmkofyRcCCHK+eDpC7Xz9k6/ki59LpsMxOo6Q4zC13AQQ5HIjpIAgCEyZNVcWLV1mpvqxcX0QfCkznAQQ5HD6BasgAIE8JIAg56HTaTIEIBBOAghyOP2CVRCAQB4SQJDz0Ok0GQIQCCcBBDmcfsEqCEAgDwkgyHnodJoMAQiEkwCCHE6/YBUEIJCHBBDkPHQ6TYYABMJJAEEOp1+wCgIQyEMCCHIeOp0mQwAC4SSAIIfTL1gFAQjkIQEEOQ+dTpMhAIFwEkCQw+kXrIIABPKQAIKch06nyRCAQDgJIMjh9AtWQQACeUgAQc5Dp9NkCEAgnAQQ5HD6BasgAIE8JIAg56HTaTIEIBBOAghyOP2CVRCAQB4SQJDz0Ok0GQIQCCcBBDmcfsEqCEAgDwkgyHnodJoMAQiEkwCCHE6/YBUEIJCHBBDkPHQ6TYYABMJJAEEOp1+wCgIQyEMCCHIeOp0mQwAC4SSAIIfTL1gFAQjkIQEEOQ+dTpMhAIFwEkCQw+kXrIIABPKQAIKch06nyRCAQDgJIMjh9AtWQQACeUgAQc5Dp9NkCEAgnAQQ5HD6BasgAIE8JIAg56HTaTIEIBBOAghyOP2CVRCAQB4SQJDz0Ok0GQIQCCcBBDmcfsEqCEAgDwkgyHnodJoMAQiEkwCCHE6/YBUEIJCHBBDkPHQ6TYYABMJJAEEOp1+wCgIQyEMCCHIeOp0mQwAC4SSAIFeSX9YVF8tz73wkx/TYW2rWqF5JtVINBCAQJQKhFuR3vvhOPv7+Zxl04ZlSUFAQJa5lbC1at06ueeBxuemcflKnVs1ItwXjs0/guqFPyJq1RXL3xf2zbwwWVBiBUAvyFfc9YjV0p85bSp+D9sm40R9++6O899UPWe28CHLG7uPCBAR+Gv+PfPbjrzLwpGNi3+rvpe3GzeX8E46EWUQJhFaQ5/67UP7vmRflwN12lrFff18uMUWQI9o7MdsXAQTZF65QZg6tIA8e+bKsWLVKLju1j1z/4HC58MSjpE2LZnEQn3ztXRk/ZZrccu5pMmT0q7Jg0WLr+4v6Hi2tmze1/m2Psu0Lq5nQxx0mBGKn734bLy998Jn1Z+vmG0n/Yw+TWjVqxL4vNrHfF8Z+Ij+Nn2B9tnHTJnLucYdLrZqleRJ5dvyU6fLka+9YX7Vr3VLOOLKX6GOmO2Qx779F8sCzL8vaonVSo3o1GWDqd7fTXf7aoiIZ/uo7MmnmbOurzptvKqf0PlCqVq0al/WbX8fLKx+WtE3bdNFJR8tGDRvE8rz31ffy4bc/WTYNHf2K/Lt4qfVd/2N6yxabtJI/J0+Tp8a8a33WuH49ufiUY+PY6Od/TJoqT7/xnqxfL9LI5FH2dWvXsq6xnwquPuNEmThjtrxoONr2nnrYQVKlShXrb7ePnI1wPpL/M22mDDdM1SeatIytt9gsln28sfdJY6/2h1sffdpimu6RXuvea8cusv2W7eXhF163bG7coL5ccvKxZWL9f5q2jnhjrGnretPWuqatx8TaahsxYfpMeezlt6w/C4w/zjzqEIulMxWuWSOPvPiGzJr/r/XxkfvtKbttt3VcHu3L+htQX2s6fN89ZI/tt4nluenhp2T1mrUy6KKzrDZr253pwr7m99K85Pcye8G/8tDzY6wQh6YjTFm7O8qaMXe+9fu59bzTZfS7H8qfk0rK6r33bobNtrJo6XK584lRYlxs+ezyfn2kaaOGcfXNNG0ZaspQ32ieE3vtL9t13CIuj75HGfX2B/L7hCnW59rP+x/bW2pW552KDSqUgqxOver+x+S4A/eRrltvKdcPHS7NN2osF7gexWxB1sZox2nVbCN587OvjZAXxoTvq19+l7+nzjDCPd3qiNpZ7M5/x+OjZMnyFXLQ7l2lWeNGMubjL2XpipVy18CzY2JxtYn7FlStIkeYH031atUtgVtVuFpuO/8MS0ATpY+MyL1rxE7t2W+XHeTb3/4S/aFqcgryj3/+I8+/97F03LSNdN9pW/n0h3Em3yzrR6yfJUrFRgyuGvyo1K5ZUw7fbw/RX8nL5oaiP1yn3bc9+ozVlt2262wJ9tsmHj9nwX/St9cBst2WJT8UW5D1JrV31+2kScP68u4X38uylStl2w6by+RZc6TXnrtYP8iPvvtZ9AflFDgVsCkmj9q+eZtW8uanX1mifqcRCb052IKsP17lfuBuXeWvqdNF293K3DAHGvHW9LQROXf6feIUw7ua3H7BGdZXKubf//G37G6Ea8fOHeTzH3+Tcf9Msuw+ZK9uVh5bkPXfzZs0Mv6pbt3IUyUV5Hp1altt67XHrrLUtF1vUtoHnW0d9uLrMnmmtrWLaWtr09avTVuXxNqqdYw1Pv/AXLtVu01lzx23ka/H/SG/T5wqB3TbyWq7JvWJ+qaJEf3DTZ+aNGOWFXpQ8ep7yAFWnpnzFpib9CvmRr6x7L/rTvKHYfH1r3/Kxhs1kUvMTdHqRw5B/m3CZFlmyn3N9F+9mext/LGN8V+DunXkB8NMBxR649pn5+1F82p9HTfdxPSzXlZZtiDrv7ua8OCWm7WRj77/xeov2n8/Nv/u3b2bVDc83/78G1m1ek1cX/vG2PbKh59LuzYtZT9Txy9/T7J83N7ciM42N3c7XW1+09WqFZgb0F6mf1Sx+q3eVHSApH2QZG5468d9rDe+UKVf/pooz77zYewH8bP5e7T52yk4arAtyDf0P8X6UdlJf2S9u5u7u+mYmhKFLKbPmS9DnysZFdizHhTElebanTp3NDHrfa0R9z1PPW9GBMcbwS4dEWj5+gPTH1qipN+rGDvjexPND+/Rl96MCfI6MxJTsdeRit4o7HT/qJdl/sLFMSFylz/81beNqM0ow0LrPNS0WcXxPyOKdz05Wq496yRpWK9urAgduemNwRYaW5DdPwgtS8eudzleGNkhpCtPP8EaZeuN7PbHRsrl5gmmmRE/J3sVBR0V24K8iRkJXeAQRltck41eVaBVkG8ccGpsBHrrI88YQdnOuvHa6VYjbCpEdjm2IOuNexMTS/WStK3qf+0HdvrL3Lx1JH792SdLfSNqdlsvO/U4I/SN49qqTwXXnNnXEnQVHLVPR5Z2evfL76ybmW3jdWZwoS919Ro7qdi+agTN9sP/nn5B9MnJyccWe/s34BRkJ3t3DFm5qVCetEHsNa8K4bfmydAu3xZkjT3r9Xa64aEnpdCIr47CdbSvyR4QHGra2N201fbxduYJo68ZFbsZ6pOGPlXq04D2bW23MnPafPQBe8muXTp7cVfO5wmlILsFTR8RrzSjwkPNXbr7TtvFnGILsvuHrdfryFpH2JoSCbLm0cf4W847Lc7JQ559VRYuXWqJwcpCM9J+eIT1qHjYPjq6Tt8f7B+vlusMfbhf6umo/Qkjrm7bJ5jH8sdeeSvpo7baraPXkw7tEWfMr2a0qD8WffS+dsgT1ojZXbaObG40PzI7JGELciJ++pit+ZxJ67ZDRxrfV5F2X6shDn0aUeGw26zhmi032yRWlI50VZQTCbI+Lj/1+rtxI/lk1J8xwv2bEW63IKcLU7jb5Byd6ncrzROQCp4+muuT0+CRL5nH/v/K2DtizHvypwmZaVunzZ4nDz7/Wpk8Kmh6o9hhqw7WaFDDb+5Qi9apbG2/aDhDw1FXmZtfE0eIyWm3V0FOxO5bcwN42dwA3ILsvAHqdXrD1f6cqH9s06GdnHLogdbgQAcJiZhrm/TprN/hB1s3Tr2BHrDrjnLg7jun/yHlaY7QCfLylavklkeelotONHHgFiVxYE1DzCPcvIWLrFCBnVIKshnlHmdGuakEOZXP7Q6mj52vfvSFlVXjxr323FV22aZTmXitXZY+Ej7z5vtxowr9zi3Ib3/xrXxiHgWTJefI3S0gh+2zu+y5Q5ek1179wGOybl38I7edWX8kelPTm1sqQW6/SWvzuHloXB167QUnmtFni+ai4Z7Fy5YntUH5JRNk+zHa/SNW8dJRmYq3irgz6QhUY/IaR3anihZkDUnd6BDkQSZ+qmGbZEnr11CFjmJT3Qzm/mdeVD/9YtJydI669i1N9g1P/608eu21q7RsulHsWq+CrIOZl97/1Ar3JONmj5D9CPLWW2xqbiwHWyFCDYEkarc+MTQ0o2G9sWjS0Mc7pt9r0qcEDTXpwMl+l5AUTB59ETpB1piqxp+SpevOOlka1KtjfV1eQdYwh3sUaNfbwsSsnWnOv/9ZMd5f/5lsCY07TGLntR93B11oHvMKSl+yuQXZfpS99JTjEjZVwwBVEwzJVRS1I2vsNFnS+c5an/tHYj9p9DDhlh4m3FIRgpzMfuXnV5BVBNcXry/z1KLt1JGlvvzRkInGljUFNUIuK8jPGkFeJqna+umP4+Stz75JKcgahtBwxNlHH2qFQtxJP3POUVd/abhOBwXT5swzYTATdzcvZjV5FeRBTzxrPeldYcJudp0VMUK2BTlZH1Ibta9qiEdDPc6k4Qv9LengRW+0+hI23UvyfNHk0AmyOrFD29ZysuuRXB1yw0NPSRfzuG5/Vx5B1heFxeuLTay2dMaF2+n60kZ/nO54pNq4vXkxdqJ5QeZOGirQkMF1Jn7bwBG/dQvyJPOC6BHzosjvCw0VW51Bct7xR8RV/c+0Gdbf+rLmzuHPysIly8qIg/3YaMfEyyPIDz73miUSdw3snzSU40eQn3nThB/M2/ebTKiozoZZGnYD7Xi7Hb+2P68sQdYZClNnzy0Tt3c6wI7bu99zaJhi8qzZ1os+u28cse+e5t1B/KwKZ1k6Ym3UoJ7Ur1Mq2vYLYPuFqRdBtuO9xx+8r+y4VcdYFRUpyPYLyET9WH8nWq/Wr+9FVpvZJYl+S9227SxH7b9XvmhuynaGSpDtwP/N5o5ZO8G0Mn2xpyMGe+TnVZA//+k3ecPMAHCOGLWD3DvieTnadIRdTYewk74x1rihxlDtcIV7qpp2tF222cosg+6eEK79Ntn5okgfG7/7/a/YSz17JknTRg3kitNKHuk0acxO3/In66D2I+KN55gXXrVKppetWbvWTKkbbk010hiyTve6dsjjln1qp51uNaEgjSPb0/7KI8irVpvHenOD3MeM1HttmOWg9Wjsc/mKVdZMDq+CrFPnRrz+njXLwD1VSsu0WSkT/fFq0pDMtWYaoXM2hP1Sz+nnOSbOvcqMEHUWSKKkvnTHkN0j5ELTVh0M7G1CPYeYUI+dJpu26k1OX2jZTx86M+IcMy3STrpc/ue/J1piruk2E5fVa3T2iD2zQK/VGSsDzBQwnZ2iN10VZB3V2smeRnmnKUefnJIJst6sdeqhJtsm5zuHYvMEcvvjJTaUJ4Zsj5DtOvTFnb7As5P9BGj/dsZ+/YN88M2P1tOP892K8t+n6/ZWSIYUslkWNw8bYY0inHFip5M0ZqmxS31JoC8LvAqyLR61TdyqhXmEOrdPyQ9m9Lvmx2LmF+tb383Nm+iJZsqZTktyznm2X2zoD62eGbGoeKgIuDuW00770VQ/69SurZmDO0vq164ti4z9TnGfbkZCOndTQxtd2rczMdkV1khMR086ikqWNMausfZOm7U1s97WW9P6dJqXztm2k96A9Eak06s2adlcxpmpSJp09oPOgtBUHkF2Xq+P2ToCnDZnrjXt7fQjelrt9irI9jzkREvKVVzUXo29agxWp+bVMNMP9d+tzSP8LDPHNlUMedRb75vpcZNTviRNJ8jaVltQ1MZOpq3TzdOBPkGdfsTB1t+adAqgCqsOJrY0vtEZLToFU/vbZq02tvLozfMm08+LzE1zK8NIBVj7lPPGPHPefDPt7VUrtrptx82tWL2+NHTG9RMJsv1kpPPee5rpilqnzvtV3+vccO3nOuhR0db/t/tieWLI2iadHnefefGpoST9XWof1oGFiqyKrZ3sfquDnTpm2qb1WzI3I7052WGofBfl0IyQdWHB+9/8YE0439G8kU6W9IehU7l27bKVNVrWqWn2HE/7Gs3T2kw729qInJ00tvvNb3+aBQ5m/qdjmpn+qPTlmgqcxj01vuqeE6lTsDR2rI/ObVu1sKY2JYrvOm3Wm8CbJqaoj2nbGDv0R/++GSHsa+ZpOjufipbOW9aRnP7Y9zYdWMU1XfrFjLrUrirmfzubF0GJ5i1r2OKj736y2qYjGH277bRbbxQ6tzYRv42M8OmSdWdSrt0Md2coRm9gOotFbyZNzKiu557dYvOzdTT2gflO/elcSDDbiMHv5sdo16vlJku6aEPnXGv60SwX1sUZNc3sGH25qoL1pZlnrvFw/feCRUtMn5gQ1x4ViqVGHPSFVaKkdev8XhU+O+mgQF9A6ewae5GLfqejSn15pwLpbqt9rb6Y1Budxpx1qqQyTyQ23//xl7mRzrTCPfpU41zgomWpDdpfFpgnOY2v6vxr5+O+7vGiTwnOqZc6Wh3ziZlLv3ylJYY2c71h64tUnfu73y47mhtcPfnExHB36NTeehpU8dRpcDpPucaG+LzaoC/rdBFLov6hfVTtLmW2Tt43K2r1yVNj1QeY+dMNzeIZd9KbgwrxuuJ11oIpZcxLvVJKoRHkdALE9xDIhICOvnVxw8F77JLJ5VwDgUolgCBXKm4qq0wCOjLWEXKy0XFl2kJdEPBCAEH2Qok8EIAABCqBAIJcCZCpAgIQgIAXAgiyF0rkgQAEIFAJBBDkSoBMFRCAAAS8EECQvVAiDwQgAIFKIJCzgmxvfuNn569K4B36KoaZncb0uCx78Uh5DNad5YrMXFl7T+PylBWGa3WPYl0qTJ8Kgzdy0wYEuYL9+u6X31pLl3vvvXsFlxx8cbqI5foHn7RO0LDt1xVden6bLo+298T1akllC7KuTqxuDg04ePdg5hwjyF49T75MCSDImZJLcp0uadX9dKM6itLdt5zCa+8zkcny1soWZF0EUsfs73GT2ecjiIQgB0GVMp0EQvQ6SyAAACAASURBVCvIU8x6+EIjbB3NXrDJRmY6elu8bJm0b9umzLlczpDFCrN0eJLZZ2BLsxOafTqIuxvoslPdwEWPvUl1pp0u1dalsx1MnYlSEIKsO4ZNmD7DhBEaxM4KTGS/bhaux0ptkWQjHfsa3XNB25tswx1n2ekEearZY0G3d9Q9e91+8iPIugH8wiVLrf0aUm3FqMuAdf8H3RHQnSpCkGfO+9csJV5m+VePgHImBBnxDJpA6AT5hz/NGWDvfRLXbvtIIPtDe4NzZyb98dx2fukxPLYg685Suh7fTolGUMPMhjB6fpwz2ac36GcvjtUNvv+yDrbUPRs0uUfAY78yu1mZfRuc6eTePcymQZtb+8I6z4fTPPbGOyf03M/sKZB87w49GNU+nNIu+/zjzVE7ZsMgO+kOYroqzZl67LaT2eOh5Bw3uy49QUXPV3Mm9+kVaqvGkHUfi0SHj9rtfvtzs8H+D/Eb7KuQ6t62dvIiyPYJIU6blNVtZsMZ5wEtQ812n7qhjzPpXgwn9NxfdEe1n8weFs404LjesnnrVlYb3Mdp2ZtN6b7E7TcI+3fm3MOXPvg0rgx3n0KQ4/DwRwAEQiXItnDsZrZYPHLD/qi6Ycw9Tz1n9iLY2doYRXfJusZsLencScreZ1Y3mdHNgTTZguwUnBUrC+XmR0bE7W1gbyyuj7kq1pr0PD89188WH1uQdYMgFVDdESbZ5kKJRsiZCrJ9lI9zr9nHXn7TOgj1zovMNoxmsxj7b93Xubo5QFLTSHNiya9m82/bfpurCswt5/azRpg6QtbjqVScnDcXpyBrWYlGyGvMiP06s2H8WUbQ7JGqHX/WY330eB9N6QRZN8fR0030bDY9o826eWzwrx5Eq6cxa9ITv58zO/PpGYUqrpp060t9Aek8KCDRCNmLINt12ufEaflrzQnNur3nQWZzoP3NsUOaEOQAFIgi4wiESpB1q0LdglM3X9+0ZYuYoTPnLpCaNatbO1OpkGic070jm542UcscVnn1GSWHRyabZaE/UL3W3hNY/9ZdtJwnWru3jbQF2UtcuCIFWW2zj2J3es06SmnDQZ4qaroFp5uH5nELsr0tpl2WfQKyc5TuRZCT+UDPPdRdwOyTNdIJsu7wp7t+uW3Xs9d0dHydOWRUkx7rpDeb688+Ja7z6o3Z2qy/T8lm/ZkKctI+ZerVUb/dpxBk1DNoAqESZPtHpf+vx8Sfac5Vc54m7YSh2xzqZu26KbnGWNeY7Qp1q0R7I5lkgmzva6titdrsTasnh+im57ofrTPp1pl6vpmec5YNQZ5vzg+8d8QL5pTeE02opGT/4lRJt6XUEMLsBQt1Z3KLh1uQzzjCHDbarvSwUZu3bg96Su8DY6Jmhyz0g1QxZN3W83Wz3aOec6ejTK1Tt0bV0641pRNkuz3qBz1e/o+JU61TjrUc3XLzZjOat208zIyg93ScOJ2IRaaCbJelm/e/+dlXpk9NF30KcPcpBDldL+T78hIInSBrg/RoII3r6khY06ZmD2J7FKR/69Hmy1eulK3MZtga66xmRk+j3/7Q2ug9nSB/9/t4c+jjZ5ZY2bFEfYRPdKD09iZG2ccclJoNQbY3Db/5nH6iG+snS/YoV1+oHWz2CLb3UtYDQb0KcifzQu70DYeKehkhqy16TJU+SexkDpPVvXyVoZ44rS9F/QiyfePU0Iee3KLx4xfMuYq6l7JTkE842MTaU+yTbQu3+x2Bl5CFXqubp+vL386mLdqmAvMU9azZ3F1H73afQpDLKzdcn45AKAXZabQeNa8n8OqLL3201tioxkjd07A01GGNyjZsRJ5shPy0OTpeN3ZXsdKXZfrSLNGx7E4bsiHI9ukoF598TNxpw26HaohER6f6EsyZEoUsko2Qbba2qKUbIb9nXmDqpvR2HNuuV0MWfgTZjgPry1jnjAY9pUV94xRk3TxdN6VPlTIdIf9iNk1X8XXG4bUeZaubpyPI6WSE7yuKQKgE+fOffjVn331dZgaD/tBampc5F5uXOnqyr76Ic8dz9RwyndKWTpC1LD1x4lZztpctQCoidrzSBrvSvOzSY2Y0+RPkEdY0MPeLMh1xDbqw9EBVnflxg1mEkWqWhXXemzmVoa85K89OOnK86v5HLRbKRPPoUU6nH9kzlscWc/cI+aRDesSdjKFH7egBnpeecqw5LaVJjEc6QR5iVqzNSLBiTW3xE7L44uffTMgj/qxDNUJvkgVVC2KCrCc167FYbp/r2YX6lOQMtyQaIeuxT1edfmIZPvYsC7VBbUnXpxghV5TsUE4yAqESZPvNtp79pWepaSji7ykzZKQ5F82eVWEfTrqZOePu1N4HWVPaBj/zkhUP1mT/qOwRsj5yXnNmX+uRWk951qOSnIeo6t/3mRF4W/MSUWPWOiL6atzv8s4X3xkbjjIvjZr5EmT7DD69Mejjt84L1uNxXv7gM3Oganfr8M+lJtxy71PPW/amEmRbsDSOrdfpeWx3PTHavMKT2HJkW6z6mwMyWxpR1dH/S6YuTfZThP2SUj8bcExvab1xM1lipu/pIa/OWK19g3IKsv2Eoid9W2ehmZkoeuzTMMNSbxZHmOOw9Aak8W59Oaahn7vM04emdDHkRUuXy6AnRlk3lrOOPsSa2TB41MvWSd9OX+o7guvNrA6Nf/fteYDV/mEvjLF8aZ/CbNuu/tabq74EVP72YZt9zQnhOlf63yVL5IFRr1jl24Jsn4HYzpyrqLNEtE/dZ/qU8nba4RZk+4BP9bXzqCfkBgKZEgiVIGsjdKaFTnPT1W6adGqXnvbb0/G4qidDv/bRF9YBiSqgOt1NXz7pQhG3IO9rju/5+LufrbI0rwqg8yww/VyvU4HRH74mfXw+/4QjrLPWNPkZIav9Go/UH+uR++0lu21Xckry4JEvmxdu/1r/VtHQUd1wE+dNNw9Z5zd/9P1PVkxVk840ubxf6WGmlmA8+Zx14KYmjTfrVDAdPR64e1frbDNbkPUG9vKHn1ln7GnSs89UvJzxc3cMuaT80dbhpda/N4itPql89tM4fX9ocdU5znqytsb97TzpBFnLG/fPJBlt5hHrwbFqh55XqEKrB4TGnR5tFo48aEbztkiqAF5jXh5WNyztpIfIDjKH4Go62Qhrlw3T7/5nbhbzzEtSTSrSKsQPPv9aTJD186/G/SGvf/xlrE/pOXJqm96QbDvcgmy/FD7zqF7mTMP4l6Uxo/gHBHwQCJ0g+7CdrB4JxKbxJZhl4bEIskEAApVAAEGuBMjZrgJBzrYHqB8C3gggyN44RToXghxp92F8HhFAkPPA2Rp//szMYNH5ws0aN8yDFtNECESTAIIcTb9hNQQgkIMEEOQcdCpNggAEokkAQY6m37AaAhDIQQIIcg46lSZBAALRJIAgR9NvWA0BCOQgAQQ5B51KkyAAgWgSQJCj6TeshgAEcpAAgpyDTqVJEIBANAkgyNH0G1ZDAAI5SABBzkGn0iQIQCCaBBDkaPoNqyEAgRwkgCDnoFNpEgQgEE0CCHI0/YbVEIBADhJAkHPQqTQJAhCIJgEEOZp+w2oIQCAHCSDIOehUmgQBCESTAIIcTb9hNQQgkIMEEOQcdCpNggAEokkAQY6m37AaAhDIQQIIcg46lSZBAALRJIAgR9NvWA0BCOQgAQQ5B51KkyAAgWgSQJCj6TeshgAEcpAAgpyDTqVJEIBANAkgyNH0G1ZDAAI5SABBzkGn0iQIQCCaBBDkaPoNqyEAgRwkgCDnoFNpEgQgEE0CCHI0/YbVEIBADhJAkHPQqTQJAhCIJgEEOZp+w2oIQCAHCSDIOehUmgQBCESTAIIcTb9hNQQgkIMEEOQcdCpNggAEokkAQY6m37AaAhDIQQIIcg46lSZBAALRJIAgR9NvWA0BCOQgAQQ5B51KkyAAgWgSQJCj6TeshgAEcpAAgpyDTqVJEIBANAkgyNH0G1ZDAAI5SABBzkGn0iQIQCCaBBDkaPoNqyEAgRwkgCDnoFNpEgQgEE0CCHI0/YbVEIBADhJAkHPQqTQJAhCIJgEEOZp+w2oIQCAHCSDIOehUmgQBCESTAIIcTb9hNQQgkIMEEOQcdCpNggAEokkAQY6m37AaAhDIQQIIcg46lSZBAALRJIAgR9NvWA0BCOQgAQQ5B51KkyAAgWgSQJCj6TeshgAEcpAAgpyDTqVJEIBANAkgyNH0G1ZDAAI5SABBzkGn0iQIQCCaBBDkaPoNqyEAgRwkgCDnoFNpEgQgEE0CCHI0/YbVEIBADhJAkHPQqTQJAhCIJgEEOZp+w2oIQCAHCSDIOehUmgQBCESTAIIcTb9hNQQgkIMEEOQcdCpNggAEokkAQY6m37AaAhDIQQIIcg46lSZBAALRJIAgR9NvWA0BCOQgAQQ5B51KkyAAgWgSQJCj6TeshgAEcpAAgpyDTqVJEIBANAkgyNH0G1anILBm7Vq5/sHhsRyH7bOH7LH9NgmvuHLwI7HPB550rLRs2gS2EMgaAQQ5a+grruIly1fIr/9Miitwrx23LVcFn//0a4WWVy5jfF580d1DpHD1Guuq3bfbRk497KCkJfS/9X+x727of6q0bt60TN7Bo16S+f8tkkP33s0qjwSBoAggyEGRrcRyp82eK3c8MSquxmHXXypVMrTh4+9+lufe+yju6kdMeVFIX/3yu4x44z3L1C02aS1X9Ds+pdnpBHnc35PkoRdei5Xx4DUDpVpBQRRQYGMECSDIEXSa2+REgrzTVh3l7GN6Z9S68+4YLEXr1lW6IA8e9XKszguOP1IKCqr6sr+4uFjOuf0+65pG9evJXQP7p70+nSD/OmGyPPjcqwhyWpJkqAgCCHJFUMxyGYkEWU3KZFS7YNFiuW7oE2ValElZfrE4xTGTkeiFdz0gq9eslVo1asj9V17gqfp0gqyFjHzzffn851/lklOOky033cRTuWSCQCYEEORMqIXsmmSCfNOAftKy2Ua+rL3/2Zflz0lTIynIRUUlo/pq1byHFLwIsi+AZIZAOQggyOWAF5ZLnYKsL/PsF3Ia69SRpp/kFKia1avLajNjIdPRtp96NW95R8h+63PXmeylXiblcg0EMiGAIGdCLWTXOAV5v112lE++/1mK16/3LaSffP+LjH73Q+u67TpuIeMcMzf8hCwWLFwk0+bMlzq1a0mnzTaRqlW9xYLLI8iFa9bI31NniE5527jpRrJJi2aevBTUCHmdiWf/PXW6LFuxytjTRDZt2cKTPYkyTTcs5/63UOrVqSVbtdtUqlTJ9HVtxiZwYSURQJArCXSQ1TgFuevWnaRZ40byzhffWFVu076dXHDCUZ6qd4rTXRf1lyvvL52j60WQE70MtCvesVNH6X9s/EvGuf8ulBsffjKtbQfuvrMcvX/3hPnOH3S/rC0qSvidCte1Z54sm2ycXJy9CLIzTzoOdzw+ytyM5ia154p+J8jmbVqmbfMfJmw0ZPQrsn7DjdV9QXszg+TyNDNI0lZChtARQJBD5xL/BjkFuUPbNnLZqX3iHv/TiYjWOH/hYrOYouRlXvVq1WTo1Rd5LmP6nHly++Mj0xpep1ZNue/y82P5yiPIi5Yuk6vufzRtnZphRzPjpH+SGScVJcg6Ij53wwyPdEZ17bylnHX0oUmz3fjQk9aI2Esadt0ljJi9gIpIHgQ5Io5KZaZTkJs0bCCDLjxLzr3jPlm3rti67JozTpJNW6V+ZB488iUZP2Walf+0w3tKt207exJkXZRyxX3DYuZt0qK5XHf2ybG/p8yaI3c9OTo20uu8+WZyUd+jEzbHa8hCwzHn3PZ/sTIa1K0j91xyTlyZg8y87KlmfradbjrHvOA0oQx3qihBdpZT1YzMrzqjb1yY4qEXxsi4vyfGqj/+4P1k3513KGPP/Wbq35+Tp8Y+79GtqxzTY+/Y3zPmLpA7Hn8mFpLSuh42okzKDQIIcg740T3LQkfE+hivj/OaatU008CuSD4NTB+LBzgEzh5Re3lUV2G049X9jznMjEY7lCHqtEW/TDaq8yrIutx58bLlVj3bb9lezjnu8IRe/N+I5+Wf6TOt71SMVZSDEOT3vvpeXvnwM6to++kikUF/TJoiDzz7Suwr95PLPLMa8IaHSpd8321uMg3NzSZR0tG4jso1NW/SWG497/Qc6Mk0AUHOgT6QSJC1WU6BS/Vo+9mPv8qot9+3SDgfp9MJ8rtffCevfvy5dV0NE+YYYsIcydKzb38gn/44zvp6t223ln6HH5xSHFPNQ3aGBjS0kuyl4fKVq+TS/z2UVADdjJLNskjHwfm92qOinCzd8ujTMmveAuvr88zil207bB7L6rzR9NxjVzlivz2TlqNPP/oUZCdCFznwQzZNQJBzwI/JBPljM2viuQ2zJryGCjTGq7Fet1glikM794wYbK6rveG6REiXGXG8bIM41qtTW/536bkZC7JXlxUXm9DG7aWhjURtKG/IotAsRLnILEjRVLtmTRl8RWmMPJGdv5mVf0M3rPzbc4cucvKhB1rZ3E8pD197cdrZKc4XmvuZ8EcfEwYhRZsAghxt/1nWJxNk549cJ0rp/hbu5HyZ16BuXROLHRDL4mdkOOw6s3dGmtlYfsrLZKWeu23JQjHOfOUV5Jfe/1Te/+YHq8itt2gnF57obUaL29Zf/pooD784xvrY6/zx6XPny+2PPWNd07BeXbn74lLf5UC3zssmIMg54PZkgqxNu/z/hsnSFSusVl5stpfs1K5tXIvvffp5mTCtJM56zrGHy/ad2nsSZPeLNZ2GlS5NnDErliXdaNWrIOtLxQ+//Une++q7dNUnXEpeXkF2Xn9enyNkWzN/O5P0xKtvyXe//2Vdmmqan7NsZ2yel3uZUA/fNQhy+Hzi26JUgux8pHaHCtxTtdwimWpEu2SZmV0xuHR2hV+jyyvIur2mxofdmyClsiNdnZnEkL0Iuhc2uoGRbmSk6cReB8jeO22X9jJ3HNnL9Ma0hZIhqwQQ5Kzir5jKUwmy1uAUjYeuuTi2i9oXP/8mz7w51jKiW5fOctoRPeMMSiXI7k2Iaphl1n7SkKsuLJPd6yyLVUaMB5o9j+2kj/i6u90+Jo66cdPGUtNsLqRJQxa6WMVOQQvyjWY/5VYJ9lP2wiUjQXbNfUaQvZAOdx4EOdz+8WRdOkH+3jwKP24eiTU5X+6lmx2QSpCXrzIzGO5NPYPBk/GOTF4FeeDdQ2XV6tXWlTublYlnHnVIwqoqI4as233qtp+a3LMm/LR/+Gtvy7e/jbcuOWj3XeSo/fdKe7kzZKGrEnWmBSnaBBDkaPvPsj6dICeabeAc4epS69vOP6MMCT8v4SpidOZFkL2IrN0QL3m9hBxScXjRvNT7YMNLve06tpdz+ySeE52um/00foI88tLrVjav24fOMC/1buOlXjq0kfoeQY6UuxIbm06Q9arbHxsp0+fOswo417x8evvzb2Ir2S452ezzazYBcqd0guxcFHKvWcRQP8kiBq+IvQiye5l2qhtBZQiyxrJ1+p8mnfan0/9SJV388dbnX1tZNmu1sehmUJrcL0m9THsbeM+Dsqqw0Lq+u4k59zWxZ1K0CSDI0fafZb0XQV6xqlAuufdBK7++3NNFE5p0UYX++BOldIJ874jnZML0kpkTBSaO+1CarT71JeKqwtVW/enqSzbLQpdD67JoO6USZJ3Vcc9Tz6XMW94RshbuLOMBszG+HcNO1MZnzGb3X5jN7jX1OWjfmCDr31fc94gsWV6yAvHQ7rtJ7713T9o79WVmuvh4DnTtvGsCgpwDLvciyG7hsJvtXJzgRpFOkN1l6swAnSGQKOmMgMv+72FZaUZ0F5i5utuYObup6ht00dnSpEH9tMKdbBN+txhrQUG81NNy9WljzCdfWramCjfMMbvb3eTY3e4hcyMscGxNOtOs4LvVrOSz06ALDYOGiRk4l063NVt7XnvmSTnQk2kCgpwDfcCrIOvJ1A8+X3pgpzZdN6bROayJkhdB/uyHcTLqnQ9il+u+CrqzWpsN+xGvXVskn5kTrF8Y+3EszxH77ik999y1TJU3mF3O5m3Y5axpo4ZmkcXR1mha961wngat093sEb4Wsk/X7a3/ataoLrPm/ydvfPaV9dTgTkEJsvvGpEunBxx7mGxttj5VsnoTGvPxl/LJD7/ETDq2xz5yQLedytjo3oToYLP1aM+9ullCr0m35XzAnOpiJxV0FXZSbhBAkHPAj14F2R2nTLbhjo3EiyBr3tc/+SoWF02Hs5cRl8P32SNhtp//miDDXix5seVMO3TqYAmcnTT0cf6gwWZ2Q8km/MmSe5N9Xa7tDpdURMhC619rQgjnO6bYpbLrICOyRyXZ31mvu9dsijRhw6ZIqcrRG+n9Zvqg7iNCyg0CCHIO+NGrIGtTh45+VX6bWLIA4YazT5HWKU7W8CrIWtZ8c0rIXcNHi06HS5R0nvKVp50QGzknw/7C2E/Myrsf475WYdUXkc6konzzsBGxEbXzO50CprMdtu1grnPsiqbHW510SI+4cipKkLVQveE9+tIbojeWRKmW2eviUnNQatuNm6ftdTpVcfiYd2JT6twX7LrNVnL6kb3SlkOGaBFAkKPlr9Bbq3Nyp8yaG9tgfSOzP7Puxawb73hNa0yYY/zkaaKb0DffqJFs0aa1FY5IlPTlli791g3d65ojo9q1bmmdmJLtNGv+vyZ88q+sMDcotWfzNq1imzb5sW35ypUyZfY8+decBl63Vi3rBuoM3/gpi7zhJ4Agh99HWAgBCOQJAQQ5TxxNMyEAgfATQJDD7yMshAAE8oQAgpwnjqaZEIBA+AkgyOH3ERZCAAJ5QgBBzhNH00wIQCD8BBDk8PsICyEAgTwhgCDniaNpJgQgEH4CCHL4fYSFEIBAnhBAkPPE0TQTAhAIPwEEOfw+wkIIQCBPCCDIWXK0bsbzxKtvl9Sum5bZO2A6/23blsn39jX2hmjuHTYzKdPJKtH17jo1v7Ne6szc38nYOj+voD509Rl9s/SroFoEmT4AAQhAICQEEOSQOAIzIAABCCDI9AEIQAACISGAIIfEEZgBAQhAAEGmD0AAAhAICQEEOSSOwAwIQAACCDJ9AAIQgEBICCDIIXEEZkAAAhBAkOkDEIAABEJCAEEOiSMwAwIQgACCTB+AAAQgEBICCHJIHIEZEIAABBBk+gAEIACBkBBAkEPiCMyAAAQggCDTByAAAQiEhACCHBJHYAYEIAABBJk+AAEIQCAkBBDkkDgCMyAAAQggyPQBCEAAAiEhgCCHxBGYAQEIQABBpg9AAAIQCAkBBDkkjsAMCEAAAggyfQACEIBASAggyCFxBGZAAAIQQJDpAxCAAARCQgBBDokjMAMCEIAAgkwfgAAEIBASAghySByBGRCAAAQQZPoABCAAgZAQQJBD4gjMgAAEIIAg0wcgAAEIhIQAghwSR2AGBCAAAQSZPgABCEAgJAQQ5JA4AjMgAAEIIMj0AQhAAAIhIYAgh8QRmAEBCEAAQaYPQAACEAgJAQQ5JI7ADAhAAAIIMn0AAhCAQEgIIMghcQRmQAACEECQ6QMQgAAEQkIAQQ6JIzADAhCAAIJMH4AABCAQEgIIckgcgRkQgAAEEGT6AAQgAIGQEECQQ+IIzIAABCCAINMHIAABCISEAIIcEkdgBgQgAAEEmT4AAQhAICQEEOSQOAIzIAABCCDI9AEIQAACISGAIIfEEZgBAQhAAEGmD0AAAhAICQEEOSSOwAwIQAACCDJ9AAIQgEBICCDIIXEEZkAAAhBAkOkDEIAABEJCAEEOiSMwAwIQgACCTB+AAAQgEBICCHJIHIEZEIAABBBk+gAEIACBkBBAkEPiCMyAAAQggCDTByAAAQiEhACCHBJHYAYEIAABBJk+AAEIQCAkBBDkkDgCMyAAAQggyPQBCEAAAiEhgCCHxBGYAQEIQABBpg9AAAIQCAkBBDkkjsAMCEAAAggyfQACEIBASAggyCFxBGZAAAIQQJDpAxCAAARCQgBBDokjMAMCEIAAgkwfgAAEIBASAghySByBGRCAAAQQZPoABCAAgZAQQJBD4gjMyB8C3/42PtbYXbtslT8Np6VpCSDIaRGRoaIIjJ8yTRrUrSutmzetqCJTlvPXlOlSr05tadOiWaXU57WS/rf+L5b1kesv9XoZ+fKAAIKcB0722sTFy5bLlYMfSZu9eZPGoiO7Q/bqJlWqVEmbXzNcff+jsnDpMivvod13k9577+7pukwzXfPAY/LfkqXW5QfutrMcfUD3TIuq8OsQ5ApHmjMFIsg548ryN8SrIDtr6tals5x2RM+0lTtFqG3LFnLtmSelvaY8GZz1tWzaRG4657TyFFeh1yLIFYozpwpDkHPKneVrjFuQe3TrGlfgisJC+fWfSbJ85aq4z2vXrCn3XX5eytHy82M/lo++/cm67hojxpsaUQ4yvfLh5/LeV99ZVVx1+onSrnXLMtUtWLRYrhv6ROzzygofIMhBej7aZSPI0fZfhVrvFuRUAvXL35Pk4Rdei9VfUFAgD10zMKU969ev9xziqIiGpasPQa4IypRRkQQQ5IqkGfGy/AiyNnVtUZFcdNcQWVdcbLW8WePGctv5p0eGAoIcGVfljaEIct64On1D/Qqylli4Zo0lynZ60IySq5nRchQSghwFL+WXjQhyfvk7ZWszEWQtcNATz8rU2XOssmvVqCH3X3lBmXquMrMs7HTqYQfJVu02TWnLPSOek8kz50jxhtG3Zm7aqKFcd/YpUrtmDRn+2jvyz7QZVhl3XHiWVHXN9nDWd9IhPWSb9u2svC+YWPZP4ydY/9aR/dLlK2J2NG5QP/bvq8/oKw3r1U1o49ivvpf3vv6+TCxdrz/nuMPTxseJIfOjS0YAQaZvxAhkKsjFJjZ8zm3/FysnUezZKULnH3+kdOmweULyk4wI3/Pks7I+hV967rGro/6WmgAAHQ5JREFUfPPbn7JowzS6h6+9RKpWjZ9+56xvwLGHyQ6dOlglPvX6u/L1uD/Sev3Oi/pL4wb14vKtLFwtl977oGh7UyUV5jsvOjtpFgQ5Lf68zYAg563ryzY8U0HWkgYYQdaXaJoyFeQly1bIFYOHxRnWqH592WvHLrJi1Sr5+PtfYnXogNjWRT+C/M4X38rfU0tG1mtMDHzSjFmx+pyj9tOP7GUWsdSJfafx8vMH3R9nm87D7rxFO2uk/Py7H5l51iXznjU1bdxQbj//zIS9C0HmR5eMAIJM34gRKI8gX3DnA7Jm7VqrrMv7nSDtN2kVR9bLCFkFT4VPU0HVqjL06ovMyLdqXDnLVq6Uy/73cNxnfgTZeaGfGPKFdz0gq9eUtE9H2zrqdidd+KILYOx07yXnSH2HqNufI8j86BBk+kBaAuUR5IvuHiKFq9dYdRx9wN5mdVz8HOZ0gqzx4rtMqMJOqV4OrjTzoS++58FY3qAFWcf9Azwud75z+LMyZVZJPH27ju3l3D6Hl+GOIKftinmbgRFy3rq+bMPLI8gD7x4qq1avtgo9wCwoObbH3nEVpBPkwaNekvGTp1nX7Lx1JznzqENSekZndugMD01BC7KfLqJt0LZo2mTj5nLdWScjyH4A5nleBDnPO4Cz+RUlyPvvupMcd+A+vgTZKdg3DugnrZptFElBnj5nntz++EjLdt1E6Yb+pyLI/MY8E0CQPaPK/YzlE+QhZoRcMmI9tPvuZvOg3TIWZC9LmLM9Ql6ztkimzZkrk2fMEY1r2/Mulq1YKd+aGSAIcu7/XoJoIYIcBNWIllkeQXa+9DrjiF6yi2uf33QhC79x1WwIss4ieWrMu9aUOy+JEbIXSuRxEkCQ6Q8xAuUR5HNvvy+2hPreS8+V+mYfYmdKJche5jG73VTZgqwzSHQmiTPpIphaZpGKzgiRDdOgi9YVyxKzjSkjZH5YmRBAkDOhlqPXlEeQ041woz5CPveOwbJu3TrL8y02aiK3nJt4O09iyDn646ikZiHIlQQ6CtVkKsjvmaXEr3z4WayJmSwMcQr2sOsuSbsrXGWOkH/5e6LZ2W6M1b7q1apZ86OTJQQ5Cj09vDYiyOH1TaVblqkgO1fpnXZ4T+m2becytqcbITtDHpee0kc6btomZfsrU5BvffRpmTlvgWXPeX2OkG07boEgV3rvzI8KEeT88LOnVmYiyLcMGyGzFvybcnSsX6YT5FFvfyCf/TjOKkc3r9dN7FOlC+6836wMLFnVF/Q85BseGi7z/ltk1XXBCUfFNipKZN/3f/wlj7/ylvUVL/U8dTsyOQggyHSHGAE/gqwzDm57bKQZOc6PXX/3xQOS7pCWTpBXrCqUS8zGPXa67fwzzP7KjRJ6Z+zXP8jLH3wa+y5TQV5ozty72py9Z6dk0+3ufuq52J4XNc2LvAcS7GanZehmR85d5lo1ayo3DmAeMj8x7wQQZO+scj6nW5AfNrHcWDICrCNS3f/hkx9+kS9+/i2Ox1lHHSpdt94yKaN0gqwX3vfMi/LX1OmxMnQLzM1abewwYb2JVX8uY83Wl86UqSDr9psaKrHTPeaG0iDBlpsLl5g9Kh4o3aNi7522lxN77R9n1/vf6E2iNI6uXzZv0khuPe+MMkzSvQDN+Y5GA5MSQJDpHDECmRxyqhffaFajtTKr0lIlL4KsiysudGxSlKo83f/Y3gYzU0HW8s8zsyeKNsyecNbnXi3ojCOnskv3bP538RIrS43q1WXIVRciyPzGPBNAkD2jyv2MfgRZd2Hruccuctg+e3gC40WQtSAVxysHP1Jm83dnJdebTervMWGE8u5loWVOnjnbbGo0ukwbdMmzxoCdSfNp/mSp+07byVH7d5eBZqMlO6WbceJlVaInwGTKCQIIck64sWIascpswD7mky8TFqbHMjWqX0/amhduurWme1vMdBY8Z/YLtpMKV7q9Kv6YOFXe+epbmT5nvnVqiI7Au3XpLPvtsoNVjI6kV2/Y7jPRCNlZ3547dJE2LZolNVE3nn9qjJ5AMtO6IWje/sf0NhvUl54gYl+8YOFiecnEr6fMnmstAGnaqJF0areJCWEcULJAxCRn3QftvnOZcpzfH3/wfunQ8X0eEUCQ88jZudRU51Q7L/OWc6nttCV3CSDIuevbSLZsnVl6XFAQvym9uyH6clGnvaUKC0Sy8Rid9wQQ5LzvAuEBMNWEAQY9MUpSTZ9TazXGrPFuTW03biHXnpV6znJ4WoglEEhNAEGmh4SCgMaJz3FMQeu99+5mG8/4LTx1m8vbzdxn+3BTNfzhay/2Hc8ORYMxAgIJCCDIdIvQENDToPVUaHfS6WP2eX3O7646/URp17plaOzHEAiUlwCCXF6CXF+hBOYvXCR3PvGsrDDn5iVLBWbGx+1mJV+iWRAVagyFQaCSCSDIlQyc6rwR0PP5fvtnsvz01wSZbfbKaFivnple1lZ22aZT0iXV3komFwTCSwBBDq9vsAwCEMgzAghynjmc5kIAAuElgCCH1zdYBgEI5BkBBDnPHE5zIQCB8BJAkLPkGz2B4vbHR2apdqqFQHICOreblB0CCHJ2uFMrBCAAgTIEEGQ6BQQgAIGQEECQQ+IIzIAABCCAINMHIAABCISEAIIcEkdgBgQgAAEEmT4AAQhAICQEEOSQOAIzIAABCCDI9AEIQAACISGAIIfEEZgBAQhAAEGmD0AAAhAICQEEOSSOwAwIQAACCDJ9AAIQgEBICCDIIXEEZkAAAhBAkOkDEIAABEJCAEEOiSMwAwIQgACCTB+AAAQgEBICCHJIHIEZEIAABBBk+gAEIACBkBBAkEPiCMyAAAQggCDTByAAAQiEhACCHBJHYAYEIAABBJk+AAEIQCAkBBDkkDgCMyAAAQggyPQBCEAAAiEhgCCHxBGYAQEIQABBpg9AAAIQCAkBBDkkjsAMCEAAAggyfQACEIBASAggyCFxBGZAAAIQQJDpAxCAAARCQgBBDokjMAMCEIAAgkwfgAAEIBASAghySByBGRCAAAQQZPoABCAAgZAQQJBD4gjMgAAEIIAg0wcgAAEIhIQAghwSR2AGBCAAAQSZPgABCEAgJAQQ5JA4AjMgAAEIIMj0AQhAAAIhIYAgh8QRmAEBCEAAQaYPQAACEAgJAQQ5JI7ADAhAAAIIMn0AAhCAQEgIIMghcQRmQAACEECQI9wH1q9fH2HrMT0oAlWqVAmqaMoNmACCHDDgIIpXIV5duEqKPnpI1v75kaxfsyqIaigzYgSqNmwh1XfrKzW37yXVCgoiZj3mKgEEOWL9QMW4cPVqWXXfoSLF6yJmPeZWBoEqLTpIvX4PSfVq1SqjOuqoQAIIcgXCDLooFeO1RUWy8rkrpHj6L0FXR/kRJlCj36NSe+MtpKCgaoRbkX+mI8gR8nlxcbGsWr1GVg9mdBwht2XF1PUdukv9I6+zRsnElLPigowqRZAzwpadi9atK5aVhYWydvAh2TGAWiNDoHiznaXeMbdJjerVpWpVXvJFxXEIclQ8ZexEkCPkrCybiiBn2QEZVo8gZwguG5chyNmgHs06EeRo+g1BjpDfEOQIOSvLpiLIWXZAhtUjyBmCy8ZlCHI2qEezTgQ5mn5DkCPkNwQ5Qs7KsqkIcpYdkGH1CHKG4LJxGYKcDerRrBNBjqbfEOQI+Q1BjpCzsmwqgpxlB2RYPYKcIbhsXIYgZ4N6NOtEkKPpNwQ5Qn5DkCPkrCybiiBn2QEZVo8gZwguG5chyNmgHs06EeRo+g1BjpDf8k2Qq9SoLTUPPl8K2nTWZYqybtafUvjOEPPvtRHymkj1nXpLje17itSuJ8VzJkrh2Adl/bL/Am0Dghwo3sAKR5ADQ1vxBVe0IDd5Pn6D++X3Hilrvn+t3Ia7y10x9GRZ/flIb+VWrSaNhkySqk3bpsy/bsbvsuSyLmnLbHj3L1Kw6XZp83nNsLCPt30hanTtLfUGvmjUuGbSotfNmSBLBnb0WrWvfAiyL1yhyYwgh8YV6Q3JdUGu0+dWqXXUdelBOHKoKKs4J0vZEOTGI1dJleq1PLdjxbAzZPXHwz3n95IRQfZCKXx5EOTw+ST5iKqCd3sL0wi59pHXSO3jb8/IG4tObyLrVyxKeG2lCrI5OqnJaHNoQAZHKK0afY2sem1QRu1PdBGCXGEoK7UgBLlScZevspwdIRdUkybPuuLCZjP+RWc1N7HWf+OgVW3VURrd93cZkF5DCe4L3TelJZd0NrHq8Rk5KtHIuHjBVFl8fru48qpvd5DUv+Yd81l8+GPJlTvKuqk/Z1S3+yIEuUIwVnohCHKlI8+8wlwV5DonDpJah18VByadwJYZ3T94qqz57GnfcCtKkKttsbM0uOO7uPpXjrxcCt+4N6lNiQQ8Xbu9NhBB9koqXPkQ5HD5I6U1uSrIjYZOkarNNou1ffUXo2TFkJNSsmg46Acp2Hyn0jzmfMGFJ/g/Q66iBNldjqeXjuaFX5ORhXHtXHZbD1n72wfl7pUIcrkRZqUABDkr2DOrNFcFufHjC6RK/aYxKIWv3mHODbw2JaQaOx8p9S57pTSPCXEsPN7/+XEVIchVataRxk+v8DXCtzPXv3asVN+2R+za9YXLZdGp9TPrII6rEORyI8xKAQhyVrBnVmmuCnKDmz+Xap32LIWyZqUsPLluZpB8XlURglz37Mek5v5nlorqisWy6PTGniwpaLejNLzzR5eY640lfkqip8IQZL+YQpcfQQ6dS5IblKuCXH3HQ6T+lW/GNVxfbi25ZhezCKQoUA9VhCA3ea44bmbF2nHvybI7DvZsdxkbLmwv6+ZN8nx9ooyMkMuFL2sXI8hZQ++/4lwVZCXRePgiqVK3URkohWPulFWvDpL1q5b6B+bhigoRZNcCm5XDz5PC9x7yUHtJFrcNS2/YQ4r+/srz9QhyuVCF6mIEOVTuSG1MLguymKlvjZ9aKrpcOmEyMeJVL90she8OkfXLF1aY14IQ5KXX7SZFE77xbGPjEculSq3SEM3ywX1kzdcveL4eQS4XqlBdjCCHyh15LMgbmt7gju+l2hZdU4JYv3qFLLtpbymaHB97zcSVQQjy4oFbmj0r/vFsTuPhC83TQWnMeeWIi6Xw7cGer0eQy4UqVBcjyKFyB4KsBKo2ayf1r35bClp3Si3MSxfIogGty7XZUCgE+Yn/pEq9JrG2rnz6Eil8675y9UxiyOXCl7WLEeSsofdfcU6HLJLgqK37Wxx4bpxgubMu6tfAxJiX+QdqrghCkJdc3VXW+Ri9N35qiVSp3SBm/wqzyGV1BotcnAAQ5Iy6Q9YvQpCz7gLvBuSjIDvp1Ok3WGoddIEZQpedb5zpCrcgBNmvoLpnaSy9aR8pGv+p946RICeCXC58WbsYQc4aev8V57sg28TqXfKS1Nj16DiAK4dfYGY2DPUNNQhB9rLS0GloGRvS7GDnpZEIshdK4cuDIIfPJ0ktQpBL0TR6eIZUbdKm9IMsLp2uf8NHUn3rfWO2FC+aI4sHtPLUs/Rlnr7Uc6aFfc0eykVrPF2fLBOCXC58WbsYQc4aev8V56Ig1z7uVql9dOkeyMWL58ri/i3Twqmx10lS7/xnSvNlc+m0Wfaty7/jRNXjRvZ1TjVhmF4XlbsdbmAIctouFMoMCHIo3ZLYqFwU5Bq7mD0pLnXsSWGa7iUerMci1b/i9XILWUWELNQIdzmrP3lKVjx8Wtre1eQ53T+5NCa+8tmrpHDMXWmvS5cBQU5HKJzfI8jh9EtCq3JRkPVkDd2G0pm8TPtq9MBEqdpii9LLiovNbm8Fvr1ZUYJc+7hbzEj/+rj6l1zcSdbNLrt3s52p/nXvS/UuB8SPrCsgXKEFIsi+u0IoLkCQQ+EGb0bkoiBry+vf8LGJwe4TB2HVK7fJqufjBc7OUOfEO83+yVfGi/iIgWYxxf3eQDpyVZQg6ykh1mwJV1ox7ExzPNMT8Z8WVJcGt3wh1dqbvTocaeUzl0nhm//z3YZEFyDIFYKx0gtBkCsdeeYVBi3IfizTlWS6oixR8n3IqTnYtMkzZvvKajXKFFc8d6LoYaDr16ySqs03k2qbbR/3iG9f4CXM4cXW8pwYUqX+RiaWHH/CiV1n8YJpsn71cvMisrVUqVN2z451M/+UJZdu7ccFKfMiyBWGslILQpArFXf5KstZQTZYqtSsKzpzwrmE2CutRWarzvVmy85MUoWNkDdUrmEUDaf4Sesm/yBLrt7ZzyVp8yLIaRGFMgOCHEq3JDYqlwXZbnHNA/pL3bOGefLK2nFjZdmgnmbr4LKhAk8FmEwVLchWvdVMSOLa96Va573TmrF8SF9Z88WzafP5zYAg+yUWjvwIcjj84MmKihbk6jv08lRvokzF86ckPQzUXe66aeOkeOEsX3XpPhY19jhBanQ7Vgo27mBW5xWYA08XSNE/X1ux4rW6ks28yCtvcttaNP4z0VM7KiRVqyk1dugptXpfJroRvb7ALF46X3S/5NWmDUVTfqqQahL6Z7Odpd4xt0mN6tXNwsb4w1QDq5SCy00AQS43wsoroKIFufIsp6bKJsAIubKJV0x9CHLFcKyUUhDkSsGcE5UgyNF0I4IcIb8hyBFyVpZNRZCz7IAMq0eQMwSXjcsQ5GxQj2adCHI0/YYgR8hvCHKEnJVlUxHkLDsgw+oR5AzBZeMyBDkb1KNZJ4IcTb8hyBHyG4IcIWdl2VQEOcsOyLB6BDlDcNm4DEHOBvVo1okgR9NvCHKE/IYgR8hZWTYVQc6yAzKsHkHOEFw2LosJ8tCjzIkSq7NhAnVGhMC6rXpI/UMuY6VeRPxlm4kgR8hhtiAXvnW3FEwo3yGYEWo2pmZAYM2Zo6VRoyYIcgbssnkJgpxN+j7rVkFetXq1LF66TGo/c7pUWWO2rCRBwEWgsP2+Uq3HhdKgbh0EOWK9A0GOkMOKzWY6a9YWycrCQlm6fKUUT/5W6v4+xghzZltPRqjpmOqBQFHD1rJ8tzOlXpNmUrd2balTq6ZUKygwe+ezuZAHfKHIgiCHwg3ejFhvDvIsNv+tWbtWVhWuNqPl8p1M7K1WckWJQNWqVS0hrlWzhlQ3Yqx/k6JDAEGOjq8sS21RXltUJEVF5oBMEgQcBHQ0XK1aAWIc0V6BIEfQcSrK9n8RNB+TgyRgBLmq+Y8wRZCQgysbQQ6OLSVDAAIQ8EUAQfaFi8wQgAAEgiOAIAfHlpIhAAEI+CKAIPvCRWYIQAACwRFAkINjS8kQgAAEfBFAkH3hIjMEIACB4AggyMGxpWQIQAACvgggyL5wkRkCEIBAcAQQ5ODYUjIEIAABXwQQZF+4yAwBCEAgOAIIcnBsKRkCEICALwIIsi9cZIYABCAQHAEEOTi2lAwBCEDAFwEE2RcuMkMAAhAIjgCCHBxbSoYABCDgiwCC7AsXmSEAAQgERwBBDo4tJUMAAhDwRQBB9oWLzBCAAASCI4AgB8eWkiEAAQj4IoAg+8JFZghAAALBEUCQg2NLyRCAAAR8EUCQfeEiMwQgAIHgCCDIwbGlZAhAAAK+CCDIvnCRGQIQgEBwBBDk4NhSMgQgAAFfBBBkX7jIDAEIQCA4AghycGwpGQIQgIAvAgiyL1xkhgAEIBAcAQQ5OLaUDAEIQMAXAQTZFy4yQwACEAiOAIIcHFtKhgAEIOCLAILsCxeZIQABCARHAEEOji0lQwACEPBFAEH2hYvMEIAABIIjgCAHx5aSIQABCPgigCD7wkVmCEAAAsERQJCDY0vJEIAABHwRQJB94SIzBCAAgeAIIMjBsaVkCEAAAr4IIMi+cJEZAhCAQHAEEOTg2FIyBCAAAV8EEGRfuMgMAQhAIDgCCHJwbCkZAhCAgC8CCLIvXGSGAAQgEBwBBDk4tpQMAQhAwBcBBNkXLjJDAAIQCI4AghwcW0qGAAQg4IsAguwLF5khAAEIBEcAQQ6OLSVDAAIQ8EUAQfaFi8wQgAAEgiOAIAfHlpIhAAEI+CKAIPvCRWYIQAACwRFAkINjS8kQgAAEfBFAkH3hIjMEIACB4AggyMGxpWQIQAACvgggyL5wkRkCEIBAcAQQ5ODYUjIEIAABXwQQZF+4yAwBCEAgOAIIcnBsKRkCEICALwIIsi9cZIYABCAQHAEEOTi2lAwBCEDAFwEE2RcuMkMAAhAIjgCCHBxbSoYABCDgiwCC7AsXmSEAAQgERwBBDo4tJUMAAhDwRQBB9oWLzBCAAASCI4AgB8eWkiEAAQj4IoAg+8JFZghAAALBEUCQg2NLyRCAAAR8EUCQfeEiMwQgAIHgCCDIwbGlZAhAAAK+CCDIvnCRGQIQgEBwBBDk4NhSMgQgAAFfBBBkX7jIDAEIQCA4AghycGwpGQIQgIAvAgiyL1xkhgAEIBAcAQQ5OLaUDAEIQMAXAQTZFy4yQwACEAiOAIIcHFtKhgAEIOCLAILsCxeZIQABCARHAEEOji0lQwACEPBFAEH2hYvMEIAABIIjgCAHx5aSIQABCPgigCD7wkVmCEAAAsERQJCDY0vJEIAABHwRQJB94SIzBCAAgeAIIMjBsaVkCEAAAr4IIMi+cJEZAhCAQHAEEOTg2FIyBCAAAV8EEGRfuMgMAQhAIDgCCHJwbCkZAhCAgC8CCLIvXGSGAAQgEBwBBDk4tpQMAQhAwBcBBNkXLjJDAAIQCI4AghwcW0qGAAQg4IsAguwLF5khAAEIBEcAQQ6OLSVDAAIQ8EUAQfaFi8wQgAAEgiOAIAfHlpIhAAEI+CKAIPvCRWYIQAACwRFAkINjS8kQgAAEfBFAkH3hIjMEIACB4AggyMGxpWQIQAACvgggyL5wkRkCEIBAcAQQ5ODYUjIEIAABXwQQZF+4yAwBCEAgOAIIcnBsKRkCEICALwIIsi9cZIYABCAQHAEEOTi2lAwBCEDAFwEE2RcuMkMAAhAIjgCCHBxbSoYABCDgiwCC7AsXmSEAAQgERwBBDo4tJUMAAhDwRQBB9oWLzBCAAASCI4AgB8eWkiEAAQj4IoAg+8JFZghAAALBEUCQg2NLyRCAAAR8EUCQfeEiMwQgAIHgCCDIwbGlZAhAAAK+CCDIvnCRGQIQgEBwBBDk4NhSMgQgAAFfBBBkX7jIDAEIQCA4AghycGwpGQIQgIAvAgiyL1xkhgAEIBAcAQQ5OLaUDAEIQMAXAQTZFy4yQwACEAiOAIIcHFtKhgAEIOCLAILsCxeZIQABCARHAEEOji0lQwACEPBFAEH2hYvMEIAABIIjgCAHx5aSIQABCPgigCD7wkVmCEAAAsERQJCDY0vJEIAABHwRQJB94SIzBCAAgeAIIMjBsaVkCEAAAr4IIMi+cJEZAhCAQHAEEOTg2FIyBCAAAV8EEGRfuMgMAQhAIDgCCHJwbCkZAhCAgC8CCLIvXGSGAAQgEBwBBDk4tpQMAQhAwBcBBNkXLjJDAAIQCI4AghwcW0qGAAQg4IsAguwLF5khAAEIBEcAQQ6OLSVDAAIQ8EUAQfaFi8wQgAAEgiOAIAfHlpIhAAEI+CKAIPvCRWYIQAACwRFAkINjS8kQgAAEfBFAkH3hIjMEIACB4AggyMGxpWQIQAACvgggyL5wkRkCEIBAcAQQ5ODYUjIEIAABXwQQZF+4yAwBCEAgOAIIcnBsKRkCEICALwIIsi9cZIYABCAQHAEEOTi2lAwBCEDAFwEE2RcuMkMAAhAIjgCCHBxbSoYABCDgiwCC7AsXmSEAAQgERwBBDo4tJUMAAhDwRQBB9oWLzBCAAASCI4AgB8eWkiEAAQj4IoAg+8JFZghAAALBEUCQg2NLyRCAAAR8EUCQfeEiMwQgAIHgCCDIwbGlZAhAAAK+CCDIvnCRGQIQgEBwBBDk4NhSMgQgAAFfBBBkX7jIDAEIQCA4AghycGwpGQIQgIAvAgiyL1xkhgAEIBAcAQQ5OLaUDAEIQMAXgf8Hizz+Sg/mU8MAAAAASUVORK5CYII=;" vertex="1" parent="1">
          <mxGeometry x="18" y="20" width="356" height="633" as="geometry" />
        </mxCell>
        <mxCell id="xRkAMs9unRZzOuT88SSD-45" value="" style="rounded=1;whiteSpace=wrap;html=1;strokeWidth=3;dashed=1;strokeColor=#C2C2C2;fillColor=none;" vertex="1" parent="1">
          <mxGeometry x="30" y="30" width="190" height="50" as="geometry" />
        </mxCell>
        <mxCell id="xRkAMs9unRZzOuT88SSD-47" value="&lt;font style=&quot;font-size: 17px;&quot;&gt;Mensaje de bienvenida, donde se mostrará el nombre de usuario&lt;br&gt;&lt;/font&gt;" style="rounded=1;whiteSpace=wrap;html=1;strokeWidth=3;" vertex="1" parent="1">
          <mxGeometry x="420" y="40" width="200" height="80" as="geometry" />
        </mxCell>
        <mxCell id="xRkAMs9unRZzOuT88SSD-51" value="" style="rounded=1;whiteSpace=wrap;html=1;strokeWidth=3;dashed=1;strokeColor=#C2C2C2;fillColor=none;" vertex="1" parent="1">
          <mxGeometry x="90" y="200" width="210" height="190" as="geometry" />
        </mxCell>
        <mxCell id="xRkAMs9unRZzOuT88SSD-55" value="&lt;font style=&quot;font-size: 17px;&quot;&gt;&lt;font style=&quot;font-size: 17px;&quot;&gt;Campos para introducir capital inicial.&lt;/font&gt; Son de tipo NumberDecimal, tienen un tamaño de 13 y sólo admiten números, puntos y comas.&lt;br&gt;&lt;/font&gt;" style="rounded=1;whiteSpace=wrap;html=1;strokeWidth=3;" vertex="1" parent="1">
          <mxGeometry x="386" y="190" width="254" height="140" as="geometry" />
        </mxCell>
        <mxCell id="xRkAMs9unRZzOuT88SSD-56" value="&lt;font style=&quot;font-size: 17px;&quot;&gt;&lt;font style=&quot;font-size: 17px;&quot;&gt;Botón para terminar, se comprobará que ambos campos estén rellenos, y se insertarán los movimientos en la tabla del usuario, además de actualizarse su cuenta para marcar el flag de que ha hecho su primer movimiento.&lt;/font&gt;&lt;br&gt;&lt;/font&gt;" style="rounded=1;whiteSpace=wrap;html=1;strokeWidth=3;" vertex="1" parent="1">
          <mxGeometry x="386" y="370" width="294" height="210" as="geometry" />
        </mxCell>
        <mxCell id="xRkAMs9unRZzOuT88SSD-57" value="" style="endArrow=none;html=1;rounded=0;exitX=1;exitY=0.5;exitDx=0;exitDy=0;strokeWidth=3;" edge="1" target="xRkAMs9unRZzOuT88SSD-56" parent="1" source="xRkAMs9unRZzOuT88SSD-58">
          <mxGeometry width="50" height="50" relative="1" as="geometry">
            <mxPoint x="316" y="515" as="sourcePoint" />
            <mxPoint x="400" y="515" as="targetPoint" />
          </mxGeometry>
        </mxCell>
        <mxCell id="xRkAMs9unRZzOuT88SSD-58" value="" style="rounded=1;whiteSpace=wrap;html=1;strokeWidth=3;dashed=1;strokeColor=#C2C2C2;fillColor=none;" vertex="1" parent="1">
          <mxGeometry x="100" y="410" width="190" height="80" as="geometry" />
        </mxCell>
        <mxCell id="xRkAMs9unRZzOuT88SSD-46" value="" style="endArrow=none;html=1;rounded=0;strokeWidth=3;exitX=1;exitY=0.5;exitDx=0;exitDy=0;" edge="1" target="xRkAMs9unRZzOuT88SSD-47" parent="1" source="xRkAMs9unRZzOuT88SSD-45">
          <mxGeometry width="50" height="50" relative="1" as="geometry">
            <mxPoint x="336" y="194.5" as="sourcePoint" />
            <mxPoint x="420" y="194.5" as="targetPoint" />
          </mxGeometry>
        </mxCell>
        <mxCell id="xRkAMs9unRZzOuT88SSD-54" value="" style="endArrow=none;html=1;rounded=0;strokeWidth=3;exitX=1.024;exitY=0.542;exitDx=0;exitDy=0;exitPerimeter=0;" edge="1" target="xRkAMs9unRZzOuT88SSD-55" parent="1" source="xRkAMs9unRZzOuT88SSD-51">
          <mxGeometry width="50" height="50" relative="1" as="geometry">
            <mxPoint x="830" y="200" as="sourcePoint" />
            <mxPoint x="380" y="355" as="targetPoint" />
          </mxGeometry>
        </mxCell>
      </root>
    </mxGraphModel>
  </diagram>
</mxfile>
